# This file uses centimeters as units for non-parametric coordinates.

mtllib basicPrototypeRoom.mtl
g default
v -12.734639 -9.185431 25.468605
v 12.734639 -9.185431 25.468605
v -12.734639 9.185431 25.468605
v 12.734639 9.185431 25.468605
v -12.734639 9.185431 -25.468605
v 12.734639 9.185431 -25.468605
v -12.734639 -9.185431 -25.468605
v 12.734639 -9.185431 -25.468605
v 0.000000 9.185430 0.000000
v -11.522285 -8.513124 22.789545
v 11.522285 -8.513124 22.789545
v 11.522285 -8.513124 -22.789547
v -11.522285 -8.513124 -22.789547
v 11.402403 8.166247 22.789547
v -11.402403 8.166247 22.789547
v -11.402403 8.166247 -22.789547
v 11.402403 8.166247 -22.789547
vt 0.375000 0.000000
vt 0.625000 0.000000
vt 0.375000 0.250000
vt 0.625000 0.250000
vt 0.375000 0.500000
vt 0.625000 0.500000
vt 0.375000 0.750000
vt 0.625000 0.750000
vt 0.375000 1.000000
vt 0.625000 1.000000
vt 0.875000 0.000000
vt 0.875000 0.250000
vt 0.125000 0.000000
vt 0.125000 0.250000
vt 0.500000 0.375000
vt 0.375000 0.250000
vt 0.625000 0.250000
vt 0.625000 0.500000
vt 0.375000 0.500000
vt 0.625000 0.250000
vt 0.375000 0.250000
vt 0.375000 0.500000
vt 0.625000 0.500000
vn 0.000000 0.000000 1.000000
vn 0.000000 0.000000 1.000000
vn 0.000000 0.000000 1.000000
vn 0.000000 0.000000 1.000000
vn 0.000000 1.000000 0.000000
vn 0.000000 1.000000 0.000000
vn 0.000000 1.000000 0.000000
vn 0.000000 1.000000 0.000000
vn 0.000000 0.000000 -1.000000
vn 0.000000 0.000000 -1.000000
vn 0.000000 0.000000 -1.000000
vn 0.000000 0.000000 -1.000000
vn 0.000000 -1.000000 0.000000
vn 0.000000 -1.000000 0.000000
vn 0.000000 -1.000000 0.000000
vn 0.000000 -1.000000 0.000000
vn 1.000000 0.000000 0.000000
vn 1.000000 0.000000 0.000000
vn 1.000000 0.000000 0.000000
vn 1.000000 0.000000 0.000000
vn -1.000000 0.000000 0.000000
vn -1.000000 0.000000 0.000000
vn -1.000000 0.000000 0.000000
vn -1.000000 0.000000 0.000000
vn 0.000000 1.000000 -0.000000
vn 0.000000 1.000000 -0.000000
vn 0.000000 1.000000 -0.000000
vn -0.000000 1.000000 0.000000
vn -0.000000 1.000000 0.000000
vn -0.000000 1.000000 0.000000
vn 0.000000 1.000000 0.000000
vn 0.000000 1.000000 0.000000
vn 0.000000 1.000000 0.000000
vn 0.000000 1.000000 0.000000
vn 0.000000 1.000000 0.000000
vn 0.000000 1.000000 0.000000
vn 0.000000 -0.999002 -0.044677
vn 0.000000 -0.423072 -0.906096
vn 0.000000 -0.423072 -0.906096
vn -0.089028 -0.996029 0.000000
vn -0.994270 -0.106895 0.000000
vn -0.994270 -0.106895 0.000000
vn 0.000000 -0.999002 0.044677
vn 0.000000 -0.423072 0.906096
vn 0.000000 -0.423072 0.906096
vn 0.089028 -0.996029 0.000000
vn 0.994270 -0.106895 0.000000
vn 0.994270 -0.106895 0.000000
vn 0.000000 0.000000 -1.000000
vn 0.000000 0.000000 -1.000000
vn 0.999974 -0.007187 0.000000
vn 0.999974 -0.007187 0.000000
vn 0.000000 0.000000 1.000000
vn 0.000000 0.000000 1.000000
vn -0.999974 -0.007187 0.000000
vn -0.999974 -0.007187 0.000000
s off
g pCube1
usemtl initialShadingGroup
f 1/1/1 2/2/2 4/4/3 3/3/4
f 10/16/5 11/17/6 12/18/7 13/19/8
f 5/5/9 6/6/10 8/8/11 7/7/12
f 7/7/13 8/8/14 2/10/15 1/9/16
f 2/2/17 8/11/18 6/12/19 4/4/20
f 7/13/21 1/1/22 3/3/23 5/14/24
f 3/3/25 4/4/26 9/15/27
f 4/4/28 6/6/29 9/15/30
f 6/6/31 5/5/32 9/15/33
f 5/5/34 3/3/35 9/15/36
s 1
f 9/15/37 14/20/38 15/21/39
s 2
f 9/15/40 17/23/41 14/20/42
s 3
f 9/15/43 16/22/44 17/23/45
s 4
f 9/15/46 15/21/47 16/22/48
s 1
f 15/21/39 14/20/38 11/17/49 10/16/50
s 4
f 16/22/48 15/21/47 10/16/51 13/19/52
s 3
f 17/23/45 16/22/44 13/19/53 12/18/54
s 2
f 14/20/42 17/23/41 12/18/55 11/17/56
