# This file uses centimeters as units for non-parametric coordinates.

mtllib Lipstick_top.mtl
g default
v -0.216118 1.161619 0.169265
v -0.169265 1.161619 0.216118
v -0.202396 1.161619 0.202396
v -0.216118 2.044482 0.169265
v -0.202396 2.044482 0.202396
v -0.169265 2.044482 0.216118
v 0.216118 1.161619 0.169265
v 0.202396 1.161619 0.202396
v 0.169265 1.161619 0.216118
v 0.169265 2.044482 0.216118
v 0.202396 2.044482 0.202396
v 0.216118 2.044482 0.169265
v -0.169265 2.044482 -0.216118
v -0.202396 2.044482 -0.202396
v -0.216118 2.044482 -0.169265
v -0.216118 1.161619 -0.169265
v -0.202396 1.161619 -0.202396
v -0.169265 1.161619 -0.216118
v 0.216118 2.044482 -0.169265
v 0.202396 2.044482 -0.202396
v 0.169265 2.044482 -0.216118
v 0.216118 1.161619 -0.169265
v 0.169265 1.161619 -0.216118
v 0.202396 1.161619 -0.202396
v -0.188486 2.044482 0.141633
v -0.174763 2.044482 0.174763
v -0.141633 2.044482 0.188486
v 0.141633 2.044482 0.188486
v 0.174763 2.044482 0.174763
v 0.188486 2.044482 0.141633
v 0.188486 2.044482 -0.141633
v 0.174763 2.044482 -0.174763
v 0.141633 2.044482 -0.188486
v -0.141633 2.044482 -0.188486
v -0.174763 2.044482 -0.174763
v -0.188486 2.044482 -0.141633
v -0.156720 2.070653 0.117763
v -0.145310 2.070653 0.145310
v -0.117763 2.070653 0.156720
v 0.156720 2.070653 0.117763
v 0.117763 2.070653 0.156720
v 0.145310 2.070653 0.145310
v 0.117763 2.070653 -0.156720
v 0.156720 2.070653 -0.117763
v 0.145310 2.070653 -0.145310
v -0.156720 2.070653 -0.117763
v -0.117763 2.070653 -0.156720
v -0.145310 2.070653 -0.145310
v 0.187060 1.161619 -0.146506
v 0.187060 1.161619 0.146506
v 0.175182 1.161619 0.175182
v 0.146506 1.161619 0.187060
v -0.146506 1.161619 0.187060
v -0.175182 1.161619 0.175182
v -0.187060 1.161619 0.146506
v -0.187060 1.161619 -0.146506
v -0.175182 1.161619 -0.175182
v -0.146506 1.161619 -0.187060
v 0.146506 1.161619 -0.187060
v 0.175182 1.161619 -0.175182
v 0.170664 2.032922 -0.133665
v 0.170664 2.032922 0.133665
v 0.159827 2.032922 0.159827
v 0.133665 2.032922 0.170664
v -0.133665 2.032922 0.170664
v -0.159827 2.032922 0.159827
v -0.170664 2.032922 0.133665
v -0.170664 2.032922 -0.133665
v -0.159827 2.032922 -0.159827
v -0.133665 2.032922 -0.170664
v 0.133665 2.032922 -0.170664
v 0.159827 2.032922 -0.159827
v 0.133665 2.032922 0.133665
v -0.133665 2.032922 0.133665
v -0.170664 2.032922 -0.131071
v -0.133665 2.032922 -0.131352
v 0.133665 2.032922 -0.133384
vt 0.402099 -0.000000
vt 0.652099 -0.000000
vt 0.652099 0.250000
vt 0.152099 0.250000
vt 0.152099 -0.000000
vt 0.402099 0.750000
vt 0.597901 0.750000
vt 0.847901 -0.000000
vt 0.597901 -0.000000
vt 0.597901 0.250000
vt 0.402099 0.500000
vt 0.847901 0.250000
vt 0.347901 -0.000000
vt 0.347901 0.250000
vt 0.402099 0.250000
vt 0.593928 0.250000
vt 0.625000 0.277099
vt 0.625000 0.468928
vt 0.597901 0.500000
vt 0.406072 0.500000
vt 0.375000 0.472901
vt 0.375000 0.281072
vt 0.406072 0.250000
vt 0.625000 0.281072
vt 0.593928 0.500000
vt 0.375000 0.468928
vt 0.625000 0.777099
vt 0.625000 0.972901
vt 0.597901 1.000000
vt 0.402099 1.000000
vt 0.375000 0.972901
vt 0.375000 0.777099
vt 0.375000 0.277099
vt 0.625000 0.472901
vt 0.375000 0.281072
vt 0.406072 0.250000
vt 0.593928 0.250000
vt 0.625000 0.281072
vt 0.625000 0.468928
vt 0.593928 0.500000
vt 0.406072 0.500000
vt 0.375000 0.468928
vt 0.375000 1.000000
vt 0.375000 0.000000
vt 0.375000 0.250000
vt 0.625000 1.000000
vt 0.625000 0.000000
vt 0.625000 0.250000
vt 0.375000 0.500000
vt 0.125000 0.250000
vt 0.375000 0.750000
vt 0.125000 0.000000
vt 0.625000 0.500000
vt 0.875000 0.250000
vt 0.875000 0.000000
vt 0.625000 0.750000
vt 0.375000 0.250000
vt 0.625000 0.250000
vt 0.625000 0.500000
vt 0.375000 0.500000
vt 0.375000 0.250000
vt 0.625000 0.250000
vt 0.625000 0.500000
vt 0.375000 0.500000
vt 0.625000 0.777099
vt 0.625000 0.972901
vt 0.625000 1.000000
vt 0.597901 1.000000
vt 0.402099 1.000000
vt 0.375000 1.000000
vt 0.375000 0.972901
vt 0.375000 0.777099
vt 0.375000 0.750000
vt 0.402099 0.750000
vt 0.597901 0.750000
vt 0.625000 0.750000
vt 0.625000 0.777099
vt 0.625000 0.972901
vt 0.625000 1.000000
vt 0.597901 1.000000
vt 0.402099 1.000000
vt 0.375000 1.000000
vt 0.375000 0.972901
vt 0.375000 0.777099
vt 0.375000 0.750000
vt 0.402099 0.750000
vt 0.597901 0.750000
vt 0.625000 0.750000
vt 0.597901 0.972901
vt 0.402099 0.972901
vt 0.375000 0.778999
vt 0.402099 0.778793
vt 0.597901 0.777305
vn -0.999319 0.000000 0.036898
vn -0.923879 0.000000 0.382684
vn -0.923879 0.000000 0.382684
vn -0.999319 0.000000 0.036898
vn -0.382684 0.000000 0.923879
vn -0.036898 0.000000 0.999319
vn -0.036898 0.000000 0.999319
vn -0.382684 0.000000 0.923879
vn 0.036898 0.000000 0.999319
vn 0.382684 0.000000 0.923879
vn 0.382684 0.000000 0.923879
vn 0.036898 0.000000 0.999319
vn 0.923879 0.000000 0.382684
vn 0.999319 0.000000 0.036898
vn 0.999319 0.000000 0.036898
vn 0.923879 0.000000 0.382684
vn -0.999319 0.000000 -0.036898
vn -0.923879 0.000000 -0.382684
vn -0.923879 0.000000 -0.382684
vn -0.999319 0.000000 -0.036898
vn -0.382684 0.000000 -0.923879
vn -0.036898 0.000000 -0.999319
vn -0.036898 0.000000 -0.999319
vn -0.382684 0.000000 -0.923879
vn 0.036898 0.000000 -0.999319
vn 0.382684 0.000000 -0.923879
vn 0.382684 0.000000 -0.923879
vn 0.036898 0.000000 -0.999319
vn 0.923879 0.000000 -0.382684
vn 0.999319 0.000000 -0.036898
vn 0.999319 0.000000 -0.036898
vn 0.923879 0.000000 -0.382684
vn 0.000000 1.000000 0.000000
vn 0.000000 1.000000 0.000000
vn 0.000000 1.000000 0.000000
vn 0.000000 1.000000 0.000000
vn 0.000000 1.000000 0.000000
vn 0.000000 1.000000 0.000000
vn 0.000000 1.000000 0.000000
vn 0.000000 1.000000 0.000000
vn 0.000000 1.000000 0.000000
vn 0.000000 1.000000 0.000000
vn 0.000000 1.000000 0.000000
vn 0.000000 1.000000 0.000000
vn 0.000000 1.000000 0.000000
vn 0.000000 1.000000 0.000000
vn 0.000000 1.000000 0.000000
vn 0.000000 1.000000 0.000000
vn -0.042394 0.786504 0.616128
vn 0.042394 0.786505 0.616128
vn 0.018347 0.778390 0.627512
vn -0.018347 0.778390 0.627513
vn 0.616128 0.786505 0.042394
vn 0.616128 0.786504 -0.042394
vn 0.627513 0.778390 -0.018347
vn 0.627513 0.778390 0.018347
vn 0.042394 0.786504 -0.616128
vn -0.042394 0.786505 -0.616128
vn -0.018347 0.778390 -0.627512
vn 0.018347 0.778390 -0.627513
vn -0.616128 0.786505 -0.042394
vn -0.616128 0.786504 0.042394
vn -0.627513 0.778390 0.018347
vn -0.627513 0.778390 -0.018347
vn 0.000000 -1.000000 0.000000
vn 0.000000 -1.000000 0.000000
vn 0.000000 -1.000000 -0.000000
vn 0.000000 -1.000000 -0.000000
vn 0.000000 1.000000 -0.000000
vn 0.000000 1.000000 -0.000000
vn 0.000000 1.000000 -0.000000
vn 0.000000 1.000000 -0.000000
vn 0.000000 1.000000 -0.000000
vn 0.000000 1.000000 -0.000000
vn 0.000000 1.000000 -0.000000
vn 0.000000 1.000000 -0.000000
vn 0.000000 1.000000 -0.000000
vn 0.000000 1.000000 -0.000000
vn 0.000000 1.000000 -0.000000
vn 0.000000 1.000000 -0.000000
vn 0.000000 1.000000 0.000000
vn 0.000000 1.000000 0.000000
vn 0.000000 1.000000 0.000000
vn 0.000000 1.000000 0.000000
vn 0.000000 1.000000 0.000000
vn 0.000000 1.000000 0.000000
vn 0.000000 1.000000 0.000000
vn 0.000000 1.000000 0.000000
vn -0.519550 0.826894 0.215206
vn -0.519550 0.826894 0.215206
vn -0.215204 0.826893 0.519553
vn -0.215204 0.826893 0.519553
vn 0.215204 0.826894 0.519551
vn 0.215204 0.826894 0.519551
vn 0.519550 0.826895 0.215204
vn 0.519550 0.826895 0.215204
vn 0.519550 0.826894 -0.215206
vn 0.519550 0.826894 -0.215206
vn 0.215204 0.826893 -0.519553
vn 0.215204 0.826893 -0.519553
vn -0.215204 0.826894 -0.519551
vn -0.215204 0.826894 -0.519551
vn -0.519550 0.826895 -0.215204
vn -0.519550 0.826895 -0.215204
vn 0.000000 -1.000000 0.000000
vn 0.000000 -1.000000 0.000000
vn 0.000000 -1.000000 0.000000
vn 0.000000 -1.000000 0.000000
vn 0.000000 -1.000000 0.000003
vn 0.000000 -1.000000 0.000003
vn 0.000000 -1.000000 0.000003
vn 0.000000 -1.000000 0.000003
vn 0.000000 -1.000000 0.000000
vn 0.000000 -1.000000 0.000000
vn 0.000000 -1.000000 0.000000
vn 0.000000 -1.000000 0.000000
vn 0.000000 -1.000000 0.000001
vn 0.000000 -1.000000 0.000001
vn 0.000000 -1.000000 0.000001
vn 0.000000 -1.000000 0.000001
vn 0.000000 -1.000000 0.000000
vn 0.000000 -1.000000 0.000000
vn 0.000000 -1.000000 0.000000
vn 0.000000 -1.000000 0.000000
vn 0.000000 -1.000000 0.000000
vn 0.000000 -1.000000 0.000000
vn 0.000000 -1.000000 0.000000
vn 0.000000 -1.000000 0.000000
vn 0.000000 -1.000000 0.000000
vn 0.000000 -1.000000 0.000000
vn 0.000000 -1.000000 0.000000
vn 0.000000 -1.000000 0.000000
vn 0.000000 -1.000000 -0.000003
vn 0.000000 -1.000000 -0.000003
vn 0.000000 -1.000000 -0.000003
vn 0.000000 -1.000000 -0.000003
vn 0.000000 -1.000000 0.000000
vn 0.000000 -1.000000 0.000000
vn 0.000000 -1.000000 0.000000
vn 0.000000 -1.000000 0.000000
vn 0.000000 -1.000000 -0.000001
vn 0.000000 -1.000000 -0.000001
vn 0.000000 -1.000000 -0.000001
vn 0.000000 -1.000000 -0.000001
vn 0.000000 -1.000000 0.000000
vn 0.000000 -1.000000 0.000000
vn 0.000000 -1.000000 0.000000
vn 0.000000 -1.000000 0.000000
vn 0.000000 -1.000000 0.000000
vn 0.000000 -1.000000 0.000000
vn 0.000000 -1.000000 0.000000
vn 0.000000 -1.000000 0.000000
vn -0.999823 -0.018814 0.000000
vn -0.999823 -0.018814 0.000000
vn -0.999823 -0.018814 0.000000
vn -0.999823 -0.018814 0.000000
vn -0.923635 -0.023019 -0.382581
vn -0.923635 -0.023019 -0.382581
vn -0.923635 -0.023019 -0.382581
vn -0.923635 -0.023019 -0.382581
vn -0.382581 -0.023019 -0.923635
vn -0.382581 -0.023019 -0.923635
vn -0.382581 -0.023019 -0.923635
vn -0.382581 -0.023019 -0.923635
vn 0.000000 -0.018814 -0.999823
vn 0.000000 -0.018814 -0.999823
vn 0.000000 -0.018814 -0.999823
vn 0.000000 -0.018814 -0.999823
vn 0.382581 -0.023019 -0.923635
vn 0.382581 -0.023019 -0.923635
vn 0.382581 -0.023019 -0.923635
vn 0.382581 -0.023019 -0.923635
vn 0.923635 -0.023019 -0.382581
vn 0.923635 -0.023019 -0.382581
vn 0.923635 -0.023019 -0.382581
vn 0.923635 -0.023019 -0.382581
vn 0.999823 -0.018814 0.000000
vn 0.999823 -0.018814 0.000000
vn 0.999823 -0.018814 0.000000
vn 0.999823 -0.018814 0.000000
vn 0.999823 -0.018814 0.000000
vn 0.923635 -0.023019 0.382581
vn 0.923635 -0.023019 0.382581
vn 0.923635 -0.023019 0.382581
vn 0.923635 -0.023019 0.382581
vn 0.382581 -0.023019 0.923635
vn 0.382581 -0.023019 0.923635
vn 0.382581 -0.023019 0.923635
vn 0.382581 -0.023019 0.923635
vn 0.000000 -0.018814 0.999823
vn 0.000000 -0.018814 0.999823
vn 0.000000 -0.018814 0.999823
vn 0.000000 -0.018814 0.999823
vn -0.382581 -0.023019 0.923635
vn -0.382581 -0.023019 0.923635
vn -0.382581 -0.023019 0.923635
vn -0.382581 -0.023019 0.923635
vn -0.923635 -0.023019 0.382581
vn -0.923635 -0.023019 0.382581
vn -0.923635 -0.023019 0.382581
vn -0.923635 -0.023019 0.382581
vn 0.000000 -1.000000 0.000000
vn 0.000000 -1.000000 0.000000
vn 0.000000 -1.000000 0.000000
vn 0.000000 -1.000000 0.000000
vn 0.000000 -1.000000 0.000000
vn 0.000000 -1.000000 0.000000
vn 0.000000 -1.000000 -0.000000
vn 0.000000 -1.000000 -0.000002
vn 0.000000 -1.000000 0.000000
vn 0.000000 -1.000000 0.000000
vn 0.000000 -1.000000 0.000000
vn 0.000000 -1.000000 0.000000
vn 0.000000 -1.000000 0.000002
s 1
g pCube56
usemtl initialShadingGroup
f 1/13/1 3/44/2 5/45/3 4/14/4
s 2
f 3/44/5 2/1/6 6/15/7 5/45/8
f 9/9/9 8/47/10 11/48/11 10/10/12
s 3
f 8/47/13 7/2/14 12/3/15 11/48/16
s 1
f 15/4/17 14/50/18 17/52/19 16/5/20
s 4
f 14/49/21 13/11/22 18/6/23 17/51/24
f 21/19/25 20/53/26 24/56/27 23/7/28
s 3
f 20/54/29 19/12/30 22/8/31 24/55/32
s 2
f 6/15/7 2/1/6 9/9/9 10/10/12
s 4
f 13/11/22 21/19/25 23/7/28 18/6/23
s 3
f 12/3/15 7/2/14 22/8/31 19/12/30
s 1
f 15/4/17 16/5/20 1/13/1 4/14/4
s 5
f 6/15/33 10/10/34 28/16/35 27/23/36
f 12/17/37 19/34/38 31/18/39 30/24/40
f 21/19/41 13/11/42 34/20/43 33/25/44
f 15/21/45 4/33/46 25/22/47 36/26/48
s 9
f 27/23/49 28/16/50 41/37/51 39/36/52
s 10
f 30/24/53 31/18/54 44/39/55 40/38/56
s 11
f 33/25/57 34/20/58 47/41/59 43/40/60
s 12
f 36/26/61 25/22/62 37/35/63 46/42/64
s 13
f 75/91/65 76/92/66 74/90/67 67/83/68
s off
f 46/42/69 37/35/70 38/61/71 39/36/72 41/37/73 42/62/74 40/38/75 44/39/76 45/63/77 43/40/78 47/41/79 48/64/80
s 5
f 4/33/46 5/45/81 26/57/82 25/22/47
f 5/45/81 6/15/33 27/23/36 26/57/82
f 10/10/34 11/48/83 29/58/84 28/16/35
f 11/48/83 12/17/37 30/24/40 29/58/84
f 13/11/42 14/49/85 35/60/86 34/20/43
f 14/49/85 15/21/45 36/26/48 35/60/86
f 19/34/38 20/53/87 32/59/88 31/18/39
f 20/53/87 21/19/41 33/25/44 32/59/88
s 12
f 25/22/62 26/57/89 38/61/90 37/35/63
s 9
f 26/57/91 27/23/49 39/36/52 38/61/92
f 28/16/50 29/58/93 42/62/94 41/37/51
s 10
f 29/58/95 30/24/53 40/38/56 42/62/96
f 31/18/54 32/59/97 45/63/98 44/39/55
s 11
f 32/59/99 33/25/57 43/40/60 45/63/100
f 34/20/58 35/60/101 48/64/102 47/41/59
s 12
f 35/60/103 36/26/61 46/42/64 48/64/104
s off
f 22/27/105 7/28/106 50/66/107 49/65/108
f 7/28/109 8/46/110 51/67/111 50/66/112
f 8/46/113 9/29/114 52/68/115 51/67/116
f 9/29/117 2/30/118 53/69/119 52/68/120
f 2/30/121 3/43/122 54/70/123 53/69/124
f 3/43/125 1/31/126 55/71/127 54/70/128
f 1/31/129 16/32/130 56/72/131 55/71/132
f 16/32/133 17/51/134 57/73/135 56/72/136
f 17/51/137 18/6/138 58/74/139 57/73/140
f 18/6/141 23/7/142 59/75/143 58/74/144
f 23/7/145 24/56/146 60/76/147 59/75/148
f 24/56/149 22/27/150 49/65/151 60/76/152
f 49/65/153 50/66/154 62/78/155 61/77/156
f 50/66/157 51/67/158 63/79/159 62/78/160
f 51/67/161 52/68/162 64/80/163 63/79/164
f 52/68/165 53/69/166 65/81/167 64/80/168
f 53/69/169 54/70/170 66/82/171 65/81/172
f 54/70/173 55/71/174 67/83/175 66/82/176
f 55/71/177 56/72/178 68/84/179 75/91/180 67/83/181
f 56/72/182 57/73/183 69/85/184 68/84/185
f 57/73/186 58/74/187 70/86/188 69/85/189
f 58/74/190 59/75/191 71/87/192 70/86/193
f 59/75/194 60/76/195 72/88/196 71/87/197
f 60/76/198 49/65/199 61/77/200 72/88/201
s 13
f 76/92/66 77/93/202 73/89/203 74/90/67
f 61/77/204 62/78/205 73/89/203 77/93/202
f 73/89/203 62/78/205 63/79/206 64/80/207
f 74/90/67 73/89/203 64/80/207 65/81/208
f 67/83/68 74/90/67 65/81/208 66/82/209
f 70/86/210 76/92/66 75/91/65 68/84/211 69/85/212
f 71/87/213 77/93/202 76/92/66 70/86/210
f 61/77/204 77/93/202 71/87/213 72/88/214
