# This file uses centimeters as units for non-parametric coordinates.

mtllib Pill_Bottle.mtl
g default
v 0.397918 -0.000000 -0.229738
v 0.229727 -0.000000 -0.397918
v -0.000025 -0.000000 -0.459477
v -0.229738 -0.000000 -0.397918
v -0.397936 -0.000000 -0.229738
v -0.459486 -0.000000 -0.000002
v -0.397936 -0.000000 0.229735
v -0.229738 -0.000000 0.397915
v -0.000025 -0.000000 0.459475
v 0.229727 -0.000000 0.397915
v 0.397918 -0.000000 0.229735
v 0.459475 -0.000000 -0.000002
v 0.397918 1.618427 -0.229738
v 0.229727 1.618427 -0.397918
v -0.000025 1.618427 -0.459477
v -0.229738 1.618427 -0.397918
v -0.397936 1.618427 -0.229738
v -0.459486 1.618427 -0.000002
v -0.397936 1.618427 0.229735
v -0.229738 1.618427 0.397915
v -0.000025 1.618427 0.459475
v 0.229727 1.618427 0.397915
v 0.397918 1.618427 0.229735
v 0.459475 1.618427 -0.000002
v -0.000025 -0.000000 -0.000002
v 0.412060 1.613140 -0.237905
v 0.237888 1.613140 -0.412061
v -0.000021 1.613140 -0.475807
v -0.237905 1.613140 -0.412061
v -0.412067 1.613140 -0.237905
v -0.475814 1.613140 -0.000002
v -0.412067 1.613140 0.237901
v -0.237905 1.613140 0.412058
v -0.000021 1.613140 0.475805
v 0.237888 1.613140 0.412058
v 0.412060 1.613140 0.237901
v 0.475804 1.613140 -0.000002
v 0.412060 1.433359 -0.237905
v 0.237888 1.433359 -0.412061
v -0.000021 1.433359 -0.475807
v -0.237905 1.433359 -0.412061
v -0.412067 1.433359 -0.237905
v -0.475814 1.433359 -0.000002
v -0.412067 1.433359 0.237901
v -0.237905 1.433359 0.412058
v -0.000021 1.433359 0.475805
v 0.237888 1.433359 0.412058
v 0.412060 1.433359 0.237901
v 0.475804 1.433359 -0.000002
v -0.000007 1.823976 -0.000002
v 0.481206 1.433359 -0.277830
v 0.504072 1.458872 -0.291035
v 0.277812 1.433359 -0.481211
v 0.291018 1.458872 -0.504086
v -0.000025 1.433359 -0.555656
v -0.000025 1.458872 -0.582068
v -0.277826 1.433359 -0.481211
v -0.291032 1.458872 -0.504086
v -0.481220 1.433359 -0.277830
v -0.504093 1.458872 -0.291035
v -0.555660 1.433359 -0.000002
v -0.582074 1.458872 -0.000002
v -0.481220 1.433359 0.277824
v -0.504093 1.458872 0.291030
v -0.277826 1.433359 0.481207
v -0.291032 1.458872 0.504081
v -0.000025 1.433359 0.555653
v -0.000025 1.458872 0.582065
v 0.277812 1.433359 0.481207
v 0.291018 1.458872 0.504081
v 0.481206 1.433359 0.277824
v 0.504072 1.458872 0.291030
v 0.555646 1.433359 -0.000002
v 0.582056 1.458872 -0.000002
v 0.504072 1.799768 -0.291035
v 0.480091 1.823976 -0.277188
v 0.291018 1.799768 -0.504086
v 0.277171 1.823976 -0.480098
v -0.000025 1.799768 -0.582068
v -0.000025 1.823976 -0.554371
v -0.291032 1.799768 -0.504086
v -0.277185 1.823976 -0.480098
v -0.504093 1.799768 -0.291035
v -0.480112 1.823976 -0.277188
v -0.582074 1.799768 -0.000002
v -0.554380 1.823976 -0.000002
v -0.504093 1.799768 0.291030
v -0.480112 1.823976 0.277182
v -0.291032 1.799768 0.504081
v -0.277185 1.823976 0.480096
v -0.000025 1.799768 0.582065
v -0.000025 1.823976 0.554370
v 0.291018 1.799768 0.504081
v 0.277171 1.823976 0.480096
v 0.504072 1.799768 0.291030
v 0.480091 1.823976 0.277182
v 0.582056 1.799768 -0.000002
v 0.554363 1.823976 -0.000002
vt 0.635316 0.078125
vt 0.578125 0.020934
vt 0.500000 0.000000
vt 0.421875 0.020934
vt 0.364684 0.078125
vt 0.343750 0.156250
vt 0.364684 0.234375
vt 0.421875 0.291566
vt 0.500000 0.312500
vt 0.578125 0.291566
vt 0.635316 0.234375
vt 0.656250 0.156250
vt 0.375000 0.312500
vt 0.395833 0.312500
vt 0.416667 0.312500
vt 0.437500 0.312500
vt 0.458333 0.312500
vt 0.479167 0.312500
vt 0.500000 0.312500
vt 0.520833 0.312500
vt 0.541667 0.312500
vt 0.562500 0.312500
vt 0.583333 0.312500
vt 0.604167 0.312500
vt 0.625000 0.312500
vt 0.375000 0.688440
vt 0.395833 0.688440
vt 0.416667 0.688440
vt 0.437500 0.688440
vt 0.458333 0.688440
vt 0.479167 0.688440
vt 0.500000 0.688440
vt 0.520833 0.688440
vt 0.541667 0.688440
vt 0.562500 0.688440
vt 0.583333 0.688440
vt 0.604167 0.688440
vt 0.625000 0.688440
vt 0.500000 0.150000
vt 0.000000 0.000000
vt 1.000000 0.000000
vt 1.000000 1.000000
vt 0.000000 1.000000
vt 0.000000 0.000000
vt 1.000000 0.000000
vt 1.000000 1.000000
vt 0.000000 1.000000
vt 0.000000 0.000000
vt 1.000000 0.000000
vt 1.000000 1.000000
vt 0.000000 1.000000
vt 0.000000 0.000000
vt 1.000000 0.000000
vt 1.000000 1.000000
vt 0.000000 1.000000
vt 0.000000 0.000000
vt 1.000000 0.000000
vt 1.000000 1.000000
vt 0.000000 1.000000
vt 0.000000 0.000000
vt 1.000000 0.000000
vt 1.000000 1.000000
vt 0.000000 1.000000
vt 0.000000 0.000000
vt 1.000000 0.000000
vt 1.000000 1.000000
vt 0.000000 1.000000
vt 0.000000 0.000000
vt 1.000000 0.000000
vt 1.000000 1.000000
vt 0.000000 1.000000
vt 0.000000 0.000000
vt 1.000000 0.000000
vt 1.000000 1.000000
vt 0.000000 1.000000
vt 0.000000 0.000000
vt 1.000000 0.000000
vt 1.000000 1.000000
vt 0.000000 1.000000
vt 0.000000 0.000000
vt 1.000000 0.000000
vt 1.000000 1.000000
vt 0.000000 1.000000
vt 0.000000 0.000000
vt 1.000000 0.000000
vt 1.000000 1.000000
vt 0.000000 1.000000
vt 0.000000 0.000000
vt 1.000000 0.000000
vt 1.000000 1.000000
vt 0.000000 1.000000
vt 0.000000 0.000000
vt 1.000000 0.000000
vt 1.000000 1.000000
vt 0.000000 1.000000
vt 0.000000 0.000000
vt 1.000000 0.000000
vt 1.000000 1.000000
vt 0.000000 1.000000
vt 0.000000 0.000000
vt 1.000000 0.000000
vt 1.000000 1.000000
vt 0.000000 1.000000
vt 0.000000 0.000000
vt 1.000000 0.000000
vt 1.000000 1.000000
vt 0.000000 1.000000
vt 0.000000 0.000000
vt 1.000000 0.000000
vt 1.000000 1.000000
vt 0.000000 1.000000
vt 0.000000 0.000000
vt 1.000000 0.000000
vt 1.000000 1.000000
vt 0.000000 1.000000
vt 0.000000 0.000000
vt 1.000000 0.000000
vt 1.000000 1.000000
vt 0.000000 1.000000
vt 0.000000 0.000000
vt 1.000000 0.000000
vt 1.000000 1.000000
vt 0.000000 1.000000
vt 0.000000 0.000000
vt 1.000000 0.000000
vt 1.000000 1.000000
vt 0.000000 1.000000
vt 0.000000 0.000000
vt 1.000000 0.000000
vt 1.000000 1.000000
vt 0.000000 1.000000
vt 0.000000 0.000000
vt 1.000000 0.000000
vt 1.000000 1.000000
vt 0.000000 1.000000
vt 1.000000 0.751429
vt 1.000000 0.999968
vt 0.000004 1.000000
vt 0.000019 0.999981
vt 0.999999 0.751441
vt 1.000000 1.000000
vt 0.000002 0.999998
vt 1.000000 0.751440
vt 1.000000 0.999998
vt 0.000025 1.000000
vt 1.000000 0.751440
vt 0.999999 1.000000
vt 0.000003 1.000000
vt 0.999997 0.751448
vt 0.999998 1.000000
vt 0.000000 1.000000
vt 0.999997 0.751424
vt 0.999997 1.000000
vt 0.000003 0.999997
vt 0.999996 0.751438
vt 0.999998 0.999997
vt 0.000007 0.999993
vt 0.999996 0.751427
vt 0.999999 0.999993
vt 0.000009 0.999991
vt 0.999987 0.751439
vt 0.999988 1.000000
vt 0.000018 0.999982
vt 1.000000 0.751422
vt 1.000000 0.999991
vt 0.000007 0.999993
vt 1.000000 0.751421
vt 0.999997 0.999969
vt 0.000036 0.999964
vt 1.000000 0.751437
vt 1.000000 0.999997
vt 1.000000 0.931645
vt 0.976214 0.993196
vt 0.023790 0.993196
vt 0.023803 0.993196
vt 1.000000 0.931645
vt 0.976209 0.993196
vt 0.023787 0.993196
vt 1.000000 0.931645
vt 0.976220 0.993196
vt 0.023806 0.993196
vt 0.999999 0.931645
vt 0.976213 0.993196
vt 0.023791 0.993196
vt 0.999998 0.931645
vt 0.976206 0.993196
vt 0.023788 0.993196
vt 0.999997 0.931645
vt 0.976209 0.993196
vt 0.023786 0.993196
vt 0.999997 0.931645
vt 0.976206 0.993196
vt 0.023790 0.993196
vt 0.999998 0.931645
vt 0.976206 0.993196
vt 0.023786 0.993196
vt 0.999988 0.931645
vt 0.976194 0.993196
vt 0.023780 0.993196
vt 1.000000 0.931645
vt 0.976214 0.993196
vt 0.023794 0.993196
vt 0.999994 0.931645
vt 0.976202 0.993196
vt 0.023792 0.993196
vt 1.000000 0.931645
vt 0.976215 0.993196
vt 0.000009 0.000000
vt 1.000000 0.000000
vt 0.000007 0.751436
vt 0.000007 -0.000000
vt 1.000000 0.000003
vt 0.000000 0.751439
vt 0.000003 0.000004
vt 1.000000 0.000014
vt 0.000015 0.751455
vt 0.000007 0.000016
vt 0.999985 -0.000000
vt 0.000001 0.751441
vt 0.000000 0.000000
vt 0.999997 0.000014
vt 0.000000 0.751442
vt 0.000000 0.000010
vt 1.000000 0.000000
vt 0.000000 0.751417
vt 0.000003 -0.000000
vt 0.999991 0.000004
vt 0.000000 0.751429
vt 0.000000 0.000000
vt 0.999998 0.000002
vt 0.000000 0.751417
vt 0.000000 0.000000
vt 0.999997 0.000003
vt 0.000000 0.751409
vt 0.000000 0.000000
vt 0.999998 0.000002
vt 0.000005 0.751427
vt 0.000000 0.000000
vt 1.000000 0.000013
vt 0.000001 0.751423
vt 0.000004 0.000014
vt 1.000000 0.000000
vt 0.000004 0.751440
vt 0.000010 0.064872
vt 1.000000 0.064873
vt 0.000010 0.931645
vt 0.000001 0.064872
vt 1.000000 0.064883
vt 0.000001 0.931645
vt 0.000010 0.064871
vt 0.999999 0.064872
vt 0.000010 0.931645
vt 0.000000 0.064872
vt 0.999998 0.064871
vt 0.000000 0.931643
vt 0.000000 0.064871
vt 0.999997 0.064871
vt 0.000000 0.931642
vt 0.000000 0.064871
vt 0.999997 0.064872
vt 0.000000 0.931642
vt 0.000000 0.064871
vt 0.999998 0.064871
vt 0.000000 0.931643
vt 0.000000 0.064871
vt 0.999988 0.064871
vt 0.000000 0.931644
vt 0.000000 0.064871
vt 1.000000 0.064872
vt 0.000000 0.931635
vt 0.000002 0.064872
vt 0.999994 0.064871
vt 0.000002 0.931645
vt 0.000000 0.064872
vt 1.000000 0.064874
vt 0.000000 0.931644
vt 0.000003 0.064872
vt 1.000000 0.064877
vt 0.000003 0.931645
vt 0.023800 0.047584
vt 0.976206 0.047581
vt 0.023791 0.047582
vt 0.976208 0.047584
vt 0.023804 0.047580
vt 0.976209 0.047582
vt 0.023793 0.047581
vt 0.976208 0.047579
vt 0.023790 0.047580
vt 0.976208 0.047578
vt 0.023789 0.047578
vt 0.976206 0.047581
vt 0.023791 0.047582
vt 0.976205 0.047583
vt 0.023792 0.047584
vt 0.976196 0.047581
vt 0.023792 0.047584
vt 0.976208 0.047584
vt 0.023796 0.047582
vt 0.976205 0.047586
vt 0.023794 0.047587
vt 0.976211 0.047579
vt 0.023792 0.047578
vt 0.976207 0.047586
vt 0.500001 0.999996
vn 0.866015 0.000000 -0.500018
vn 0.499979 0.000000 -0.866038
vn 0.499979 0.000000 -0.866038
vn 0.866015 0.000000 -0.500018
vn 0.000000 0.000000 -1.000000
vn 0.000000 0.000000 -1.000000
vn -0.500008 0.000000 -0.866021
vn -0.500008 0.000000 -0.866021
vn -0.866015 0.000000 -0.500018
vn -0.866015 0.000000 -0.500018
vn -1.000000 0.000000 0.000000
vn -1.000000 0.000000 0.000000
vn -0.866015 0.000000 0.500018
vn -0.866015 0.000000 0.500018
vn -0.500010 0.000000 0.866020
vn -0.500010 0.000000 0.866020
vn 0.000000 0.000000 1.000000
vn 0.000000 0.000000 1.000000
vn 0.499980 0.000000 0.866037
vn 0.499980 0.000000 0.866037
vn 0.866015 0.000000 0.500018
vn 0.866015 0.000000 0.500018
vn 1.000000 0.000000 0.000000
vn 1.000000 0.000000 0.000000
vn 0.000000 -1.000000 0.000000
vn 0.000000 -1.000000 0.000000
vn 0.000000 -1.000000 -0.000000
vn 0.000000 -1.000000 0.000000
vn 0.000000 -1.000000 -0.000000
vn 0.000000 -1.000000 -0.000000
vn 0.000000 -1.000000 -0.000000
vn 0.000000 -1.000000 -0.000000
vn 0.000000 -1.000000 0.000000
vn 0.000000 -1.000000 0.000000
vn 0.000000 -1.000000 -0.000000
vn 0.000000 -1.000000 -0.000000
vn 0.000000 -1.000000 0.000000
vn -0.266762 -0.951377 0.154012
vn -0.154015 -0.951379 0.266753
vn -0.153995 -0.951379 0.266764
vn -0.266754 -0.951377 0.154026
vn 0.000010 -0.951381 0.308018
vn -0.000013 -0.951381 0.308018
vn 0.154017 -0.951374 0.266772
vn 0.154028 -0.951374 0.266766
vn 0.266818 -0.951358 0.154031
vn 0.266793 -0.951358 0.154075
vn 0.308126 -0.951346 0.000000
vn 0.308126 -0.951346 0.000000
vn 0.266823 -0.951356 -0.154036
vn 0.266802 -0.951356 -0.154072
vn 0.154021 -0.951373 -0.266773
vn 0.154032 -0.951373 -0.266767
vn 0.000010 -0.951381 -0.308016
vn -0.000013 -0.951381 -0.308016
vn -0.154019 -0.951377 -0.266760
vn -0.153999 -0.951377 -0.266771
vn -0.266767 -0.951374 -0.154022
vn -0.266763 -0.951374 -0.154028
vn -0.308036 -0.951375 -0.000000
vn -0.308036 -0.951375 -0.000000
vn -0.866013 0.000000 0.500021
vn -0.499978 0.000000 0.866038
vn -0.499978 0.000000 0.866038
vn -0.866013 0.000000 0.500021
vn 0.000000 0.000000 1.000000
vn 0.000000 0.000000 1.000000
vn 0.500010 0.000000 0.866020
vn 0.500010 0.000000 0.866020
vn 0.866020 0.000000 0.500010
vn 0.866020 0.000000 0.500010
vn 1.000000 0.000000 0.000000
vn 1.000000 0.000000 0.000000
vn 0.866020 0.000000 -0.500010
vn 0.866020 0.000000 -0.500010
vn 0.500014 0.000000 -0.866017
vn 0.500014 0.000000 -0.866017
vn -0.000000 0.000000 -1.000000
vn -0.000000 0.000000 -1.000000
vn -0.499982 0.000000 -0.866036
vn -0.499982 0.000000 -0.866036
vn -0.866013 0.000000 -0.500021
vn -0.866013 0.000000 -0.500021
vn -1.000000 0.000000 -0.000000
vn -1.000000 0.000000 -0.000000
vn 0.601719 -0.719199 -0.347401
vn 0.601710 -0.719199 -0.347416
vn 0.694815 -0.719188 -0.000000
vn 0.694815 -0.719188 0.000000
vn 0.347379 -0.719229 -0.601695
vn 0.347375 -0.719229 -0.601698
vn -0.000001 -0.719253 -0.694749
vn 0.000001 -0.719253 -0.694749
vn -0.347389 -0.719244 -0.601671
vn -0.347384 -0.719244 -0.601675
vn -0.601666 -0.719251 -0.347384
vn -0.601669 -0.719251 -0.347379
vn -0.694745 -0.719257 0.000000
vn -0.694745 -0.719257 -0.000000
vn -0.601665 -0.719254 0.347381
vn -0.601665 -0.719254 0.347381
vn -0.347390 -0.719247 0.601668
vn -0.347384 -0.719247 0.601672
vn -0.000001 -0.719253 0.694748
vn 0.000001 -0.719253 0.694748
vn 0.347381 -0.719231 0.601692
vn 0.347376 -0.719231 0.601694
vn 0.601717 -0.719202 0.347398
vn 0.601706 -0.719202 0.347417
vn 0.569957 0.752899 -0.329076
vn 0.569960 0.752899 -0.329072
vn 0.658148 0.752889 0.000000
vn 0.658148 0.752889 -0.000000
vn 0.329039 0.752927 -0.569943
vn 0.329048 0.752926 -0.569938
vn 0.000001 0.752946 -0.658083
vn -0.000001 0.752946 -0.658083
vn -0.329054 0.752925 -0.569937
vn -0.329064 0.752925 -0.569931
vn -0.569955 0.752901 -0.329077
vn -0.569957 0.752901 -0.329074
vn -0.658149 0.752888 -0.000000
vn -0.658149 0.752888 0.000000
vn -0.569957 0.752898 0.329081
vn -0.569961 0.752898 0.329073
vn -0.329071 0.752906 0.569952
vn -0.329075 0.752906 0.569950
vn 0.000001 0.752915 0.658118
vn -0.000001 0.752915 0.658118
vn 0.329056 0.752908 0.569958
vn 0.329059 0.752908 0.569956
vn 0.569960 0.752896 0.329080
vn 0.569965 0.752896 0.329072
vn 0.000000 -1.000000 0.000000
vn 0.000000 -1.000000 0.000001
vn 0.000000 -1.000000 0.000001
vn 0.000000 -1.000000 0.000000
vn 0.000000 -1.000000 -0.000001
vn 0.000000 -1.000000 -0.000001
vn 0.000000 -1.000000 -0.000001
vn 0.000000 -1.000000 -0.000001
vn 0.000000 -1.000000 -0.000000
vn 0.000000 -1.000000 -0.000000
vn 0.000000 -1.000000 -0.000000
vn 0.000000 -1.000000 -0.000000
vn 0.000000 -1.000000 -0.000000
vn 0.000000 -1.000000 -0.000000
vn 0.000000 -1.000000 0.000001
vn 0.000000 -1.000000 0.000001
vn 0.000000 -1.000000 0.000001
vn 0.000000 -1.000000 0.000001
vn 0.000000 -1.000000 -0.000001
vn 0.000000 -1.000000 -0.000001
vn 0.000000 -1.000000 -0.000000
vn 0.000000 -1.000000 -0.000000
vn 0.000000 -1.000000 -0.000000
vn 0.000000 -1.000000 -0.000000
vn 0.866021 0.000000 -0.500007
vn 0.499991 0.000000 -0.866031
vn 0.499991 0.000000 -0.866031
vn 0.866021 0.000000 -0.500007
vn 0.000000 0.000000 -1.000000
vn 0.000000 0.000000 -1.000000
vn -0.500012 0.000000 -0.866019
vn -0.500012 0.000000 -0.866019
vn -0.866019 0.000000 -0.500012
vn -0.866019 0.000000 -0.500012
vn -1.000000 0.000000 -0.000000
vn -1.000000 0.000000 -0.000000
vn -0.866018 0.000000 0.500013
vn -0.866018 0.000000 0.500013
vn -0.500014 0.000000 0.866017
vn -0.500014 0.000000 0.866017
vn 0.000000 0.000000 1.000000
vn 0.000000 0.000000 1.000000
vn 0.499993 0.000000 0.866030
vn 0.499993 0.000000 0.866030
vn 0.866021 0.000000 0.500008
vn 0.866021 0.000000 0.500008
vn 1.000000 0.000000 -0.000000
vn 1.000000 0.000000 -0.000000
vn -0.000000 1.000000 -0.000001
vn -0.000000 1.000000 0.000000
vn -0.000000 1.000000 0.000000
vn 0.000000 1.000000 0.000001
vn 0.000000 1.000000 0.000001
vn 0.000000 1.000000 0.000001
vn 0.000000 1.000000 0.000000
vn 0.000000 1.000000 -0.000001
vn 0.000000 1.000000 -0.000000
vn 0.000000 1.000000 -0.000001
vn -0.000000 1.000000 -0.000000
vn -0.000000 1.000000 0.000001
vn -0.000000 1.000000 -0.000000
s 1
g pCylinder24
usemtl initialShadingGroup
f 1/13/1 2/14/2 14/27/3 13/26/4
f 2/14/2 3/15/5 15/28/6 14/27/3
f 3/15/5 4/16/7 16/29/8 15/28/6
f 4/16/7 5/17/9 17/30/10 16/29/8
f 5/17/9 6/18/11 18/31/12 17/30/10
f 6/18/11 7/19/13 19/32/14 18/31/12
f 7/19/13 8/20/15 20/33/16 19/32/14
f 8/20/15 9/21/17 21/34/18 20/33/16
f 9/21/17 10/22/19 22/35/20 21/34/18
f 10/22/19 11/23/21 23/36/22 22/35/20
f 11/23/21 12/24/23 24/37/24 23/36/22
f 12/24/23 1/25/1 13/38/4 24/37/24
s 2
f 2/2/25 1/1/26 25/39/27
f 3/3/28 2/2/25 25/39/27
f 4/4/29 3/3/28 25/39/27
f 5/5/30 4/4/29 25/39/27
f 6/6/31 5/5/30 25/39/27
f 7/7/32 6/6/31 25/39/27
f 8/8/33 7/7/32 25/39/27
f 9/9/34 8/8/33 25/39/27
f 10/10/35 9/9/34 25/39/27
f 11/11/36 10/10/35 25/39/27
f 12/12/37 11/11/36 25/39/27
f 1/1/26 12/12/37 25/39/27
s 3
f 13/40/38 14/41/39 27/42/40 26/43/41
f 14/44/39 15/45/42 28/46/43 27/47/40
f 15/48/42 16/49/44 29/50/45 28/51/43
f 16/52/44 17/53/46 30/54/47 29/55/45
f 17/56/46 18/57/48 31/58/49 30/59/47
f 18/60/48 19/61/50 32/62/51 31/63/49
f 19/64/50 20/65/52 33/66/53 32/67/51
f 20/68/52 21/69/54 34/70/55 33/71/53
f 21/72/54 22/73/56 35/74/57 34/75/55
f 22/76/56 23/77/58 36/78/59 35/79/57
f 23/80/58 24/81/60 37/82/61 36/83/59
f 24/84/60 13/85/38 26/86/41 37/87/61
s 4
f 26/88/62 27/89/63 39/90/64 38/91/65
f 27/92/63 28/93/66 40/94/67 39/95/64
f 28/96/66 29/97/68 41/98/69 40/99/67
f 29/100/68 30/101/70 42/102/71 41/103/69
f 30/104/70 31/105/72 43/106/73 42/107/71
f 31/108/72 32/109/74 44/110/75 43/111/73
f 32/112/74 33/113/76 45/114/77 44/115/75
f 33/116/76 34/117/78 46/118/79 45/119/77
f 34/120/78 35/121/80 47/122/81 46/123/79
f 35/124/80 36/125/82 48/126/83 47/127/81
f 36/128/82 37/129/84 49/130/85 48/131/83
f 37/132/84 26/133/62 38/134/65 49/135/85
s 5
f 51/136/86 52/137/87 74/138/88 73/243/89
f 52/139/87 51/210/86 53/140/90 54/141/91
f 54/142/91 53/213/90 55/143/92 56/144/93
f 56/145/93 55/216/92 57/146/94 58/147/95
f 58/148/95 57/219/94 59/149/96 60/150/97
f 60/151/97 59/222/96 61/152/98 62/153/99
f 62/154/99 61/225/98 63/155/100 64/156/101
f 64/157/101 63/228/100 65/158/102 66/159/103
f 66/160/103 65/231/102 67/161/104 68/162/105
f 68/163/105 67/234/104 69/164/106 70/165/107
f 70/166/107 69/237/106 71/167/108 72/168/109
f 72/169/109 71/240/108 73/170/89 74/171/88
s 6
f 75/172/110 76/173/111 98/174/112 97/279/113
f 76/175/111 75/246/110 77/176/114 78/177/115
f 78/178/115 77/249/114 79/179/116 80/180/117
f 80/181/117 79/252/116 81/182/118 82/183/119
f 82/184/119 81/255/118 83/185/120 84/186/121
f 84/187/121 83/258/120 85/188/122 86/189/123
f 86/190/123 85/261/122 87/191/124 88/192/125
f 88/193/125 87/264/124 89/194/126 90/195/127
f 90/196/127 89/267/126 91/197/128 92/198/129
f 92/199/129 91/270/128 93/200/130 94/201/131
f 94/202/131 93/273/130 95/203/132 96/204/133
f 96/205/133 95/276/132 97/206/113 98/207/112
s 7
f 38/208/134 39/209/135 53/140/136 51/210/137
f 39/211/135 40/212/138 55/143/139 53/213/136
f 40/214/138 41/215/140 57/146/141 55/216/139
f 41/217/140 42/218/142 59/149/143 57/219/141
f 42/220/142 43/221/144 61/152/145 59/222/143
f 43/223/144 44/224/146 63/155/147 61/225/145
f 44/226/146 45/227/148 65/158/149 63/228/147
f 45/229/148 46/230/150 67/161/151 65/231/149
f 46/232/150 47/233/152 69/164/153 67/234/151
f 47/235/152 48/236/154 71/167/155 69/237/153
f 48/238/154 49/239/156 73/170/157 71/240/155
f 49/241/156 38/242/134 51/136/137 73/243/157
s 8
f 52/244/158 54/245/159 77/176/160 75/246/161
f 54/247/159 56/248/162 79/179/163 77/249/160
f 56/250/162 58/251/164 81/182/165 79/252/163
f 58/253/164 60/254/166 83/185/167 81/255/165
f 60/256/166 62/257/168 85/188/169 83/258/167
f 62/259/168 64/260/170 87/191/171 85/261/169
f 64/262/170 66/263/172 89/194/173 87/264/171
f 66/265/172 68/266/174 91/197/175 89/267/173
f 68/268/174 70/269/176 93/200/177 91/270/175
f 70/271/176 72/272/178 95/203/179 93/273/177
f 72/274/178 74/275/180 97/206/181 95/276/179
f 74/277/180 52/278/158 75/172/161 97/279/181
s 9
f 76/280/182 78/281/183 50/304/184
f 78/282/183 80/283/185 50/304/184
f 80/284/185 82/285/186 50/304/184
f 82/286/186 84/287/187 50/304/184
f 84/288/187 86/289/188 50/304/184
f 86/290/188 88/291/189 50/304/184
f 88/292/189 90/293/190 50/304/184
f 90/294/190 92/295/191 50/304/184
f 92/296/191 94/297/192 50/304/184
f 94/298/192 96/299/193 50/304/184
f 96/300/193 98/301/194 50/304/184
f 98/302/194 76/303/182 50/304/184
